####
#
# OBJ File Generated by Meshlab
#
####
# Object cube.obj
#
# Vertices: 8
# Faces: 12
#
####
mtllib ./cube.obj.mtl

vn -0.333333 -0.666667 0.666667
vt 0.000000 0.000000
v -1.000000 -1.000000 -1.000000
vn 0.816497 -0.408248 0.408248
vt 1.000000 0.000000
v 1.000000 -1.000000 -1.000000
vn 0.333333 0.666667 0.666667
vt 1.000000 1.000000
v 1.000000 1.000000 -1.000000
vn -0.816497 0.408248 0.408248
vt 0.000000 1.000000
v -1.000000 1.000000 -1.000000
vn -0.666667 -0.333333 0.666667
vt 0.000000 0.000000
v -1.000000 -1.000000 1.000000
vn 0.408248 -0.816497 0.408248
vt 1.000000 0.000000
v 1.000000 -1.000000 1.000000
vn 0.666667 0.333333 0.666667
vt 1.000000 1.000000
v 1.000000 1.000000 1.000000
vn -0.408248 0.816497 0.408248
vt 0.000000 1.000000
v -1.000000 1.000000 1.000000
# 8 vertices, 0 vertices normals


usemtl material_0
f 3/3/3 4/4/4 1/1/1
f 3/3/3 1/1/1 2/2/2
f 7/7/7 8/8/8 5/5/5
f 7/7/7 5/5/5 6/6/6
f 6/6/6 5/5/5 1/1/1
f 6/6/6 1/1/1 2/2/2
f 7/7/7 6/6/6 2/2/2
f 7/7/7 2/2/2 3/3/3
f 8/8/8 7/7/7 3/3/3
f 8/8/8 3/3/3 4/4/4
f 5/5/5 8/8/8 4/4/4
f 5/5/5 4/4/4 1/1/1
# 12 faces, 0 coords texture

# End of File
