ply
format ascii 1.0
comment VCGLIB generated
element vertex 8
property float x
property float y
property float z
property float nx
property float ny
property float nz
property float texture_u
property float texture_v
element face 12
property list uchar int vertex_indices
end_header
-1 1 -1 -0.5773503 0.5773503 -0.5773503 0.875 0.5
1 1 1 0.5773503 0.5773503 0.5773503 0.625 0.75
1 1 -1 0.5773503 0.5773503 -0.5773503 0.625 0.5
-1 -1 1 -0.5773503 -0.5773503 0.5773503 0.375 1
1 -1 1 0.5773503 -0.5773503 0.5773503 0.375 0.75
-1 1 1 -0.5773503 0.5773503 0.5773503 0.625 0
-1 -1 -1 -0.5773503 -0.5773503 -0.5773503 0.375 0.25
1 -1 -1 0.5773503 -0.5773503 -0.5773503 0.375 0.5
3 0 1 2 
3 1 3 4 
3 5 6 3 
3 7 3 6 
3 2 4 7 
3 0 7 6 
3 0 5 1 
3 1 5 3 
3 5 0 6 
3 7 4 3 
3 2 1 4 
3 0 2 7 
