####
#
# OBJ File Generated by Meshlab
#
####
# Object flat.obj
#
# Vertices: 5
# Faces: 4
#
####
mtllib ./flat.obj.mtl

vn -0.000000 1.000000 0.000000
vt 1.000000 1.000000
v 128.000000 0.000000 128.000000
vn -0.000000 1.000000 0.000000
vt 0.335177 0.631592
v 33.687660 0.000000 -42.194592
vn -0.000000 1.000000 0.000000
vt 1.000000 0.000000
v -128.000000 0.000000 128.000000
vn -0.000000 1.000000 0.000000
vt 0.000000 1.000000
v 128.000000 0.000000 -128.000000
vn 0.000000 1.000000 -0.000000
vt 0.000000 0.000000
v -128.000000 0.000000 -128.000000
# 5 vertices, 0 vertices normals


usemtl material_0
f 1/1/1 2/2/2 3/3/3
f 1/1/1 4/4/4 2/2/2
f 3/3/3 2/2/2 5/5/5
f 5/5/5 2/2/2 4/4/4
# 4 faces, 0 coords texture

# End of File
